<svg xmlns="http://www.w3.org/2000/svg" viewBox="0 0 50 32" fill="none">
  <rect width="50" height="32" rx="4" fill="#000000"/>
  <text x="13" y="18" fill="white" font-size="11" font-family="-apple-system, Arial, sans-serif"></text>
  <text x="21" y="20" fill="white" font-size="7.5" font-weight="500" font-family="Arial, sans-serif">Pay</text>
  <path d="M12 11.5c.7-.9.6-1.8.6-1.8s-.9.1-1.6.9c-.6.7-.6 1.7-.6 1.7s.9-.1 1.6-.8z" fill="white"/>
  <path d="M12.6 12.2c-.9 0-1.3.5-1.9.5-.7 0-1.2-.5-2-.5-1 0-2 .6-2.5 1.5-.6 1.1-.2 3.4 1 4.8.5.7 1.1 1.4 1.9 1.4.7 0 1-.5 1.9-.5.9 0 1.1.5 1.9.5.8 0 1.4-.8 1.9-1.4.5-.7.7-1.4.7-1.4s-1.4-.6-1.4-2.1c0-1.3 1.1-1.9 1.1-1.9s-.6-.9-1.6-.9z" fill="white"/>
</svg>
