<svg xmlns="http://www.w3.org/2000/svg" viewBox="0 0 50 32" fill="none">
  <rect width="50" height="32" rx="4" fill="#1A1F71"/>
  <path d="M21 21H18l1.9-10H23L21 21zM16.2 11l-2.8 6.8-.3-1.5-1-5.1s-.1-.2-.6-.2H7l-.1.2s1.2.3 2.6.9l2.4 9.9h3l4.6-11H16.2zM38.3 21h2.7L38.7 11h-2.4c-.5 0-.8.3-1 .7L31 21h3l.6-1.6h3.7l.4 1.6zm-3.2-3.9l1.5-4.2.9 4.2h-2.4zM28.5 14.1c0-.5.5-.9 1.5-.9.7 0 1.6.1 2.3.5l.3-2.5c-.6-.2-1.7-.4-2.6-.4-2.7 0-4.6 1.4-4.6 3.5 0 1.5 1.4 2.3 2.4 2.8 1 .5 1.4.9 1.4 1.4 0 .7-.8 1-1.6 1-.9 0-2.1-.2-3-.6l-.3 2.5c.9.4 2.3.5 3.3.5 2.9 0 4.7-1.4 4.7-3.6-.1-2.7-3.8-2.8-3.8-3.2z" fill="white"/>
</svg>
